<svg width="13" height="13" viewBox="0 0 13 13" fill="none" xmlns="http://www.w3.org/2000/svg">
<path d="M6.5 0C2.912 0 0 2.912 0 6.5C0 10.088 2.912 13 6.5 13C10.088 13 13 10.088 13 6.5C13 2.912 10.088 0 6.5 0ZM6.5 2.6C7.7545 2.6 8.775 3.6205 8.775 4.875C8.775 6.1295 7.7545 7.15 6.5 7.15C5.2455 7.15 4.225 6.1295 4.225 4.875C4.225 3.6205 5.2455 2.6 6.5 2.6ZM6.5 11.7C5.1805 11.7 3.6205 11.167 2.509 9.828C3.6075 8.97 4.992 8.45 6.5 8.45C8.008 8.45 9.3925 8.97 10.491 9.828C9.3795 11.167 7.8195 11.7 6.5 11.7Z" fill="black"/>
</svg>
