<svg width="11" height="15" viewBox="0 0 11 15" fill="none" xmlns="http://www.w3.org/2000/svg">
<path d="M9.625 4.8125H8.9375V3.4375C8.9375 1.54 7.3975 0 5.5 0C3.6025 0 2.0625 1.54 2.0625 3.4375V4.8125H1.375C0.61875 4.8125 0 5.43125 0 6.1875V13.0625C0 13.8188 0.61875 14.4375 1.375 14.4375H9.625C10.3813 14.4375 11 13.8188 11 13.0625V6.1875C11 5.43125 10.3813 4.8125 9.625 4.8125ZM5.5 11C4.74375 11 4.125 10.3813 4.125 9.625C4.125 8.86875 4.74375 8.25 5.5 8.25C6.25625 8.25 6.875 8.86875 6.875 9.625C6.875 10.3813 6.25625 11 5.5 11ZM3.4375 4.8125V3.4375C3.4375 2.29625 4.35875 1.375 5.5 1.375C6.64125 1.375 7.5625 2.29625 7.5625 3.4375V4.8125H3.4375Z" fill="black"/>
</svg>
