<svg width="11" height="15" viewBox="0 0 11 15" fill="none" xmlns="http://www.w3.org/2000/svg">
<path d="M0.785714 13.0089C0.785714 13.8732 1.49286 14.5804 2.35714 14.5804H8.64286C9.50714 14.5804 10.2143 13.8732 10.2143 13.0089V5.15179C10.2143 4.2875 9.50714 3.58036 8.64286 3.58036H2.35714C1.49286 3.58036 0.785714 4.2875 0.785714 5.15179V13.0089ZM10.2143 1.22321H8.25L7.69214 0.665357C7.55071 0.523929 7.34643 0.4375 7.14214 0.4375H3.85786C3.65357 0.4375 3.44929 0.523929 3.30786 0.665357L2.75 1.22321H0.785714C0.353571 1.22321 0 1.57679 0 2.00893C0 2.44107 0.353571 2.79464 0.785714 2.79464H10.2143C10.6464 2.79464 11 2.44107 11 2.00893C11 1.57679 10.6464 1.22321 10.2143 1.22321Z" fill="black"/>
</svg>
